<svg viewBox="0 0 166 30" xmlns="http://www.w3.org/2000/svg">

	<g fill-rule="nonzero" fill="none"><path d="M45.79 20.69c.617.038 1.236-.047 1.82-.25.366-.192.577-.59.53-1-.03-.434-.294-.818-.69-1-.67-.395-1.372-.73-2.1-1-.68-.25-1.348-.533-2-.85-.56-.267-1.072-.622-1.52-1.05-.432-.41-.773-.908-1-1.46-.242-.638-.36-1.317-.35-2-.054-1.432.59-2.8 1.73-3.67C43.612 7.443 45.3 6.98 47 7.1c.97-.002 1.937.088 2.89.27.748.13 1.484.325 2.2.58l-.82 3.64c-.58-.198-1.172-.365-1.77-.5-.706-.154-1.427-.227-2.15-.22-1.467 0-2.2.407-2.2 1.22-.004.17.026.34.09.5.087.172.218.317.38.42.244.168.5.315.77.44.327.16.74.333 1.24.52.873.312 1.72.686 2.54 1.12.592.31 1.13.715 1.59 1.2.377.41.658.898.82 1.43.168.592.25 1.205.24 1.82.084 1.467-.606 2.87-1.82 3.7-1.568.923-3.374 1.358-5.19 1.25-1.23.025-2.46-.103-3.66-.38-.68-.162-1.35-.373-2-.63l.78-3.8c.795.315 1.614.562 2.45.74.792.172 1.6.262 2.41.27zM66.19 11.68c-.42-.107-.91-.217-1.47-.33-.6-.117-1.21-.174-1.82-.17-.35.005-.702.032-1.05.08-.314.033-.625.09-.93.17V24h-4.68V8.41c.984-.332 1.985-.61 3-.83 1.235-.27 2.496-.4 3.76-.39h.91c.353 0 .717.057 1.09.17.353.053.71.117 1.07.19.31.06.616.152.91.27l-.79 3.86zM75.1 7.1c1.168-.03 2.333.128 3.45.47.836.263 1.594.726 2.21 1.35.564.605.97 1.34 1.18 2.14.24.91.358 1.85.35 2.79v9.73c-.667.147-1.597.32-2.79.52-1.433.217-2.88.317-4.33.3-.974.01-1.946-.084-2.9-.28-.81-.158-1.582-.474-2.27-.93-.62-.422-1.118-1.002-1.44-1.68-.356-.798-.527-1.666-.5-2.54-.027-.854.173-1.7.58-2.45.373-.656.907-1.206 1.55-1.6.688-.434 1.446-.746 2.24-.92.847-.162 1.708-.235 2.57-.22.54-.003 1.082.024 1.62.08.388.036.773.103 1.15.2v-.44c.034-.712-.226-1.406-.72-1.92-.708-.54-1.594-.79-2.48-.7-.786 0-1.572.056-2.35.17-.682.095-1.352.26-2 .49l-.6-3.77c.273-.087.607-.177 1-.27.393-.093.853-.18 1.38-.26.48-.073.987-.137 1.52-.19.533-.053 1.06-.077 1.58-.07zm.38 13.69h1.32c.335-.01.67-.04 1-.09v-3.59c-.187-.073-.453-.11-.8-.11-.332-.038-.666-.058-1-.06-.415 0-.83.026-1.24.08-.347.045-.685.147-1 .3-.28.135-.517.342-.69.6-.175.28-.262.61-.25.94-.063.606.224 1.196.74 1.52.598.288 1.257.425 1.92.4v.01zM90.63 24c-1.087-2.06-2.173-4.493-3.26-7.3-1.087-2.807-2.13-5.863-3.13-9.17h5c.207.813.453 1.697.74 2.65.287.953.58 1.917.88 2.89.307.973.61 1.92.91 2.84.3.92.6 1.757.9 2.51.273-.753.567-1.59.88-2.51.313-.92.623-1.867.93-2.84.307-.973.6-1.937.88-2.89.28-.953.527-1.837.74-2.65h4.8c-.987 3.333-2.03 6.39-3.13 9.17-1.1 2.78-2.187 5.213-3.26 7.3h-3.88zM103.38 8.1c1.013-.275 2.04-.49 3.08-.64 1.323-.206 2.66-.306 4-.3 1.19-.034 2.377.152 3.5.55.86.316 1.62.85 2.21 1.55.558.7.955 1.517 1.16 2.39.242 1.01.36 2.043.35 3.08V24H113v-8.71c.083-1.1-.124-2.204-.6-3.2-.523-.688-1.372-1.045-2.23-.94h-1.07l-1 .11V24h-4.68l-.04-15.9zM127 2.76c.03.756-.272 1.488-.83 2-1.126.972-2.794.972-3.92 0-.558-.512-.86-1.244-.83-2-.03-.756.272-1.488.83-2 1.126-.972 2.794-.972 3.92 0 .558.512.86 1.244.83 2zM126.55 24h-4.68V7.53h4.68V24zM135.52 21.57c.054.816-.275 1.61-.89 2.15-1.162.955-2.838.955-4 0-.615-.54-.944-1.334-.89-2.15-.054-.816.275-1.61.89-2.15 1.162-.955 2.838-.955 4 0 .615.54.944 1.334.89 2.15zM148.61 11.68c-.42-.107-.91-.217-1.47-.33-.6-.117-1.21-.174-1.82-.17-.35.005-.702.032-1.05.08-.314.033-.625.09-.93.17V24h-4.68V8.41c.984-.332 1.985-.61 3-.83 1.25-.272 2.53-.403 3.81-.39h.91c.353 0 .71.043 1.07.13.353.053.71.117 1.07.19.31.06.616.152.91.27l-.82 3.9zM166 23.48c-1.013.275-2.04.49-3.08.64-1.323.206-2.66.306-4 .3-1.192.037-2.38-.153-3.5-.56-.862-.33-1.624-.877-2.21-1.59-.56-.715-.957-1.545-1.16-2.43-.24-1.02-.358-2.063-.35-3.11v-9.2h4.68v8.63c-.078 1.123.128 2.248.6 3.27.5.72 1.36 1.105 2.23 1h1.07c.38 0 .713-.037 1-.11V7.53H166v15.95z" fill="#3B3E44"/><path d="M10.36 18.61c-1.338-2.24-.984-5.104.86-6.95 1.845-1.847 4.708-2.205 6.95-.87l6.14-6.14C18.63-.017 10.336.39 5.14 5.59c-5.194 5.2-5.593 13.495-.92 19.17l6.14-6.15z" fill="#03A9F4"/><path d="M26.33 6.68l-6.14 6.14c1.308 2.24.94 5.082-.894 6.916-1.834 1.835-4.675 2.202-6.916.894l-6.14 6.15c5.68 4.645 13.954 4.23 19.14-.958 5.188-5.19 5.598-13.465.95-19.142z" fill="#0DD149"/></g>

</svg>